<svg width="397" height="305" viewBox="0 0 397 305" fill="none" xmlns="http://www.w3.org/2000/svg">
<path d="M91.4128 211.078L122.15 162.748L53.3132 118.982L17.7641 174.878L74.7008 211.078H91.4128Z" fill="#F0F0F0"/>
<path d="M134.97 226.155H58.8331V210.831H134.97V226.155ZM59.8219 225.166H133.981V211.819H59.8219V225.166Z" fill="#3F3D56"/>
<path d="M125.577 223.436C128.307 223.436 130.521 221.223 130.521 218.493C130.521 215.763 128.307 213.549 125.577 213.549C122.846 213.549 120.633 215.763 120.633 218.493C120.633 221.223 122.846 223.436 125.577 223.436Z" fill="#623CEA"/>
<path d="M111.734 223.436C114.464 223.436 116.677 221.223 116.677 218.493C116.677 215.763 114.464 213.549 111.734 213.549C109.003 213.549 106.79 215.763 106.79 218.493C106.79 221.223 109.003 223.436 111.734 223.436Z" fill="#623CEA"/>
<path d="M97.8904 223.436C100.621 223.436 102.834 221.223 102.834 218.493C102.834 215.763 100.621 213.549 97.8904 213.549C95.1599 213.549 92.9464 215.763 92.9464 218.493C92.9464 221.223 95.1599 223.436 97.8904 223.436Z" fill="#623CEA"/>
<path d="M84.0473 223.436C86.7778 223.436 88.9913 221.223 88.9913 218.493C88.9913 215.763 86.7778 213.549 84.0473 213.549C81.3169 213.549 79.1034 215.763 79.1034 218.493C79.1034 221.223 81.3169 223.436 84.0473 223.436Z" fill="#623CEA"/>
<path d="M70.2042 223.436C72.9347 223.436 75.1482 221.223 75.1482 218.493C75.1482 215.763 72.9347 213.549 70.2042 213.549C67.4738 213.549 65.2603 215.763 65.2603 218.493C65.2603 221.223 67.4738 223.436 70.2042 223.436Z" fill="#623CEA"/>
<path d="M225.445 55.859V18.2901H244.232V0H152.274V91.9449H230.883V82.9553C230.883 81.2795 231.213 79.6201 231.854 78.0719C232.496 76.5237 233.436 75.117 234.621 73.932C235.806 72.7471 237.213 71.8071 238.761 71.1658C240.31 70.5246 241.969 70.1945 243.646 70.1945H244.232V55.859H225.445Z" fill="#F0F0F0"/>
<path d="M327.29 237.277H265.985V250.13H327.29V237.277Z" fill="#623CEA"/>
<path d="M340.639 174.003H250.659V185.867H340.639V174.003Z" fill="#F0F0F0"/>
<path d="M384.64 304.011H0V305H384.64V304.011Z" fill="#3F3D56"/>
<path d="M356.057 305H243.646C240.131 304.996 236.761 303.598 234.276 301.113C231.791 298.628 230.393 295.259 230.389 291.745V82.9553C230.393 79.441 231.791 76.0719 234.276 73.5869C236.761 71.102 240.131 69.7042 243.646 69.7002H356.057C359.572 69.7042 362.941 71.102 365.427 73.5869C367.912 76.0719 369.31 79.441 369.314 82.9553V291.745C369.31 295.259 367.912 298.628 365.426 301.113C362.941 303.598 359.572 304.996 356.057 305ZM243.646 70.6888C240.393 70.6925 237.275 71.9861 234.975 74.2857C232.675 76.5853 231.381 79.7032 231.377 82.9553V291.745C231.381 294.997 232.675 298.115 234.975 300.415C237.275 302.714 240.393 304.008 243.646 304.011H356.057C359.309 304.008 362.428 302.714 364.728 300.415C367.028 298.115 368.321 294.997 368.325 291.745V82.9553C368.321 79.7032 367.028 76.5853 364.728 74.2857C362.428 71.9861 359.309 70.6925 356.057 70.6888H243.646Z" fill="#3F3D56"/>
<path d="M286.503 79.5867C285.916 79.5867 285.342 79.4128 284.854 79.0869C284.367 78.761 283.986 78.2977 283.762 77.7558C283.537 77.2138 283.479 76.6175 283.593 76.0421C283.708 75.4668 283.99 74.9383 284.405 74.5235C284.82 74.1087 285.348 73.8262 285.924 73.7118C286.499 73.5973 287.096 73.6561 287.638 73.8806C288.18 74.105 288.643 74.4852 288.969 74.9729C289.295 75.4607 289.469 76.0341 289.469 76.6208C289.468 77.4071 289.155 78.161 288.599 78.7171C288.043 79.2731 287.289 79.5859 286.503 79.5867ZM286.503 74.6434C286.111 74.6434 285.729 74.7594 285.404 74.9767C285.079 75.194 284.825 75.5028 284.675 75.8641C284.526 76.2254 284.487 76.6229 284.563 77.0065C284.639 77.3901 284.828 77.7424 285.104 78.0189C285.381 78.2955 285.733 78.4838 286.117 78.5601C286.5 78.6364 286.898 78.5972 287.259 78.4476C287.621 78.2979 287.93 78.0445 288.147 77.7193C288.364 77.3941 288.48 77.0118 288.48 76.6208C288.48 76.0965 288.271 75.5939 287.9 75.2232C287.53 74.8525 287.027 74.644 286.503 74.6434Z" fill="#3F3D56"/>
<path d="M315.672 76.1264H293.918V77.1151H315.672V76.1264Z" fill="#3F3D56"/>
<path d="M360.415 84.0356V123.582C349.925 123.581 339.865 119.415 332.448 111.999C325.031 104.582 320.864 94.5238 320.863 84.0356H360.415Z" fill="#623CEA"/>
<path d="M360.909 291.653H238.793V83.5413H360.909V291.653ZM239.782 290.664H359.92V84.53H239.782V290.664Z" fill="#3F3D56"/>
<path opacity="0.1" d="M331.74 121.11C339.112 121.11 345.088 115.135 345.088 107.763C345.088 100.392 339.112 94.4165 331.74 94.4165C324.367 94.4165 318.391 100.392 318.391 107.763C318.391 115.135 324.367 121.11 331.74 121.11Z" fill="black"/>
<path d="M329.762 122.593C337.134 122.593 343.111 116.618 343.111 109.246C343.111 101.875 337.134 95.8995 329.762 95.8995C322.39 95.8995 316.413 101.875 316.413 109.246C316.413 116.618 322.39 122.593 329.762 122.593Z" fill="#623CEA"/>
<path d="M263.019 91.9449H244.232V98.8655H263.019V91.9449Z" fill="#3F3D56"/>
<path d="M273.401 157.69H254.614V164.611H273.401V157.69Z" fill="#3F3D56"/>
<path d="M345.583 183.395H254.614V170.543H345.583V183.395ZM255.603 182.407H344.594V171.532H255.603V182.407Z" fill="#3F3D56"/>
<path d="M340.639 211.572H250.659V223.436H340.639V211.572Z" fill="#F0F0F0"/>
<path d="M273.401 195.259H254.614V202.18H273.401V195.259Z" fill="#3F3D56"/>
<path d="M345.583 220.964H254.614V208.112H345.583V220.964ZM255.603 219.976H344.594V209.1H255.603V219.976Z" fill="#3F3D56"/>
<path d="M331.245 247.164H268.951V233.323H331.245V247.164ZM269.94 246.175H330.257V234.311H269.94V246.175Z" fill="#3F3D56"/>
<path d="M343.111 178.452C343.111 179.47 342.797 180.463 342.211 181.295C341.626 182.128 340.798 182.759 339.84 183.104C338.882 183.448 337.841 183.489 336.86 183.22C335.878 182.951 335.004 182.385 334.355 181.601L334.35 181.596C333.878 181.023 333.54 180.351 333.363 179.629C333.186 178.908 333.174 178.155 333.328 177.429C333.482 176.702 333.798 176.019 334.252 175.431C334.706 174.843 335.286 174.365 335.951 174.032C336.615 173.7 337.346 173.521 338.089 173.509C338.832 173.498 339.568 173.654 340.242 173.966C340.916 174.278 341.511 174.739 341.983 175.312C342.455 175.886 342.791 176.559 342.968 177.281C342.968 177.281 342.968 177.282 342.968 177.283C342.968 177.283 342.968 177.284 342.969 177.284C342.969 177.285 342.97 177.285 342.971 177.285C342.971 177.285 342.972 177.286 342.972 177.286C343.064 177.668 343.11 178.059 343.111 178.452Z" fill="#623CEA"/>
<path opacity="0.1" d="M343.111 178.452C343.111 179.47 342.797 180.463 342.211 181.295C341.626 182.128 340.798 182.759 339.84 183.104C338.882 183.448 337.841 183.489 336.86 183.22C335.878 182.951 335.003 182.385 334.355 181.601L334.35 181.596C334.259 181.214 334.212 180.822 334.212 180.429C334.212 179.412 334.526 178.419 335.111 177.586C335.697 176.754 336.525 176.122 337.483 175.778C338.44 175.434 339.481 175.393 340.463 175.662C341.444 175.931 342.319 176.496 342.967 177.281C342.967 177.281 342.968 177.282 342.968 177.283C342.968 177.283 342.968 177.284 342.969 177.284C342.969 177.285 342.97 177.285 342.97 177.285C342.971 177.285 342.972 177.286 342.972 177.286C343.064 177.668 343.11 178.059 343.111 178.452Z" fill="black"/>
<path d="M340.144 186.361C342.875 186.361 345.088 184.148 345.088 181.418C345.088 178.688 342.875 176.475 340.144 176.475C337.414 176.475 335.201 178.688 335.201 181.418C335.201 184.148 337.414 186.361 340.144 186.361Z" fill="#623CEA"/>
<path d="M343.111 216.021C343.111 217.039 342.797 218.032 342.211 218.864C341.626 219.697 340.798 220.328 339.84 220.673C338.882 221.017 337.841 221.058 336.86 220.789C335.878 220.52 335.004 219.954 334.355 219.17L334.35 219.165C333.878 218.592 333.54 217.919 333.363 217.198C333.186 216.476 333.174 215.724 333.328 214.998C333.482 214.271 333.798 213.588 334.252 213C334.706 212.412 335.286 211.934 335.951 211.601C336.615 211.269 337.346 211.09 338.089 211.078C338.832 211.067 339.568 211.223 340.242 211.535C340.916 211.847 341.511 212.307 341.983 212.881C342.455 213.455 342.791 214.128 342.968 214.85C342.968 214.85 342.968 214.851 342.968 214.851C342.968 214.852 342.968 214.853 342.969 214.853C342.969 214.854 342.97 214.854 342.971 214.854C342.971 214.854 342.972 214.854 342.972 214.854C343.064 215.237 343.11 215.628 343.111 216.021Z" fill="#623CEA"/>
<path opacity="0.1" d="M343.111 216.021C343.111 217.039 342.797 218.032 342.211 218.864C341.626 219.697 340.798 220.328 339.84 220.673C338.882 221.017 337.841 221.058 336.86 220.789C335.878 220.52 335.003 219.954 334.355 219.17L334.35 219.165C334.259 218.783 334.212 218.391 334.212 217.998C334.212 216.981 334.526 215.988 335.111 215.155C335.697 214.323 336.525 213.691 337.483 213.347C338.44 213.002 339.481 212.962 340.463 213.231C341.444 213.5 342.319 214.065 342.967 214.85C342.967 214.85 342.968 214.851 342.968 214.851C342.968 214.852 342.968 214.853 342.969 214.853C342.969 214.854 342.97 214.854 342.97 214.854C342.971 214.854 342.972 214.854 342.972 214.854C343.064 215.237 343.11 215.628 343.111 216.021Z" fill="black"/>
<path d="M340.144 223.93C342.875 223.93 345.088 221.717 345.088 218.987C345.088 216.257 342.875 214.044 340.144 214.044C337.414 214.044 335.201 216.257 335.201 218.987C335.201 221.717 337.414 223.93 340.144 223.93Z" fill="#623CEA"/>
<path d="M257.086 23.7277H231.377V49.4327H257.086V23.7277Z" fill="#F0F0F0"/>
<path d="M331.74 42.5122C330.566 42.5122 329.419 42.1643 328.444 41.5125C327.468 40.8606 326.708 39.9342 326.259 38.8503C325.81 37.7664 325.692 36.5737 325.921 35.423C326.15 34.2723 326.715 33.2153 327.545 32.3857C328.374 31.5561 329.432 30.9912 330.582 30.7623C331.733 30.5334 332.926 30.6509 334.01 31.0998C335.094 31.5488 336.021 32.3091 336.673 33.2846C337.325 34.2601 337.673 35.407 337.673 36.5802C337.671 38.1529 337.045 39.6607 335.933 40.7728C334.821 41.8849 333.313 42.5104 331.74 42.5122ZM331.74 31.637C330.762 31.637 329.806 31.9269 328.993 32.47C328.18 33.0132 327.546 33.7853 327.172 34.6885C326.798 35.5918 326.7 36.5857 326.891 37.5446C327.082 38.5035 327.552 39.3843 328.244 40.0757C328.935 40.767 329.816 41.2378 330.775 41.4285C331.734 41.6193 332.728 41.5214 333.632 41.1472C334.535 40.7731 335.307 40.1395 335.851 39.3266C336.394 38.5137 336.684 37.5579 336.684 36.5802C336.682 35.2697 336.161 34.0132 335.234 33.0865C334.307 32.1597 333.051 31.6385 331.74 31.637Z" fill="#3F3D56"/>
<path d="M201.219 125.065H188.365V112.212H201.219V125.065ZM189.354 124.076H200.23V113.201H189.354V124.076Z" fill="#3F3D56"/>
<path d="M397 220.964H384.146V208.112H397V220.964ZM385.135 219.976H396.011V209.1H385.135V219.976Z" fill="#3F3D56"/>
<path d="M143.376 134.786L145.582 135.974L153.088 140.019L165.206 146.547L172.268 133.447C172.933 132.216 173.349 130.866 173.491 129.474C173.634 128.082 173.501 126.676 173.099 125.336C172.698 123.996 172.036 122.748 171.151 121.664C170.267 120.58 169.177 119.681 167.945 119.018C165.311 117.596 162.294 117.047 159.328 117.449C156.362 117.851 153.601 119.185 151.441 121.257L151.437 121.261C150.375 122.281 149.478 123.461 148.78 124.758L143.376 134.786Z" fill="#2F2E41"/>
<path d="M176.45 268.389L174.97 284.671L169.418 285.411L165.717 266.908L176.45 268.389Z" fill="#FFB8B8"/>
<path d="M167.937 285.412C167.937 285.412 174.97 281.711 176.45 284.671C176.45 284.671 175.34 293.553 179.781 294.663C184.223 295.773 186.073 303.545 179.781 304.285C173.489 305.025 169.418 302.805 167.197 302.805C164.976 302.805 167.197 295.033 167.197 295.033L167.937 285.412Z" fill="#2F2E41"/>
<path d="M131.666 268.389L133.146 284.671L138.698 285.411L142.399 266.908L131.666 268.389Z" fill="#FFB8B8"/>
<path d="M140.178 285.412C140.178 285.412 133.146 281.711 131.666 284.671C131.666 284.671 132.776 293.553 128.334 294.663C123.893 295.773 122.042 303.545 128.334 304.285C134.627 305.025 138.698 302.805 140.919 302.805C143.139 302.805 140.919 295.033 140.919 295.033L140.178 285.412Z" fill="#2F2E41"/>
<path d="M162.015 137.754C167.33 137.754 171.638 133.447 171.638 128.133C171.638 122.819 167.33 118.511 162.015 118.511C156.701 118.511 152.392 122.819 152.392 128.133C152.392 133.447 156.701 137.754 162.015 137.754Z" fill="#FFB8B8"/>
<path d="M131.295 147.006L139.068 159.218L148.321 158.478L163.496 159.589C163.496 159.589 164.928 156.724 166.098 153.938C166.738 152.546 167.231 151.091 167.567 149.597C167.937 147.006 162.756 144.416 162.756 144.416C162.756 144.416 162.552 144.379 162.212 144.297C161.76 144.19 161.064 144.012 160.302 143.753C158.581 143.169 156.512 142.177 156.093 140.715C155.353 138.125 160.905 134.424 160.905 134.424L154.243 128.133C154.243 128.133 148.325 136.352 141.137 138.224C140.72 138.335 140.298 138.421 139.871 138.483C139.849 138.487 139.83 138.491 139.808 138.495C132.036 139.605 131.295 147.006 131.295 147.006Z" fill="#FFB8B8"/>
<path d="M135.367 143.676L131.295 147.006C131.295 147.006 127.964 162.919 129.075 167.36C130.185 171.801 128.705 175.871 128.705 176.612C128.705 177.352 125.374 205.107 125.374 205.107C125.374 205.107 118.711 219.91 125.744 218.429C132.776 216.949 130.185 202.146 130.185 202.146L138.698 176.242V154.408L135.367 143.676Z" fill="#FFB8B8"/>
<path d="M164.606 146.636L167.567 148.856L169.048 179.942L180.151 206.587C180.151 206.587 188.294 219.539 183.112 219.91C177.93 220.28 174.599 206.587 174.599 206.587L164.606 181.052L163.126 156.258L164.606 146.636Z" fill="#FFB8B8"/>
<path d="M146.1 148.856C146.1 148.856 153.503 154.037 165.346 152.187C165.346 152.187 168.677 158.848 166.827 162.549C164.976 166.25 169.048 175.131 169.788 176.242C170.528 177.352 179.041 200.296 182.002 225.09C184.963 249.885 193.105 266.908 186.073 269.129C179.041 271.349 164.606 273.939 163.126 271.719C161.645 269.499 159.424 214.358 159.424 214.358L155.353 235.452C155.353 235.452 160.905 271.349 156.834 272.089C152.762 272.829 127.224 270.609 127.964 266.168C128.705 261.727 136.107 238.413 136.107 238.413C136.107 238.413 135.737 191.784 143.139 182.903C143.139 182.903 146.1 178.092 142.029 171.801C137.958 165.51 138.328 155.518 138.328 155.518C138.328 155.518 141.289 155.518 146.1 148.856Z" fill="#2F2E41"/>
<path d="M139.871 138.483L146.1 152.187L147.581 151.447L141.137 138.224L139.871 138.483Z" fill="#2F2E41"/>
<path d="M160.302 143.753L164.976 154.037L166.098 153.938L165.717 152.187L162.212 144.297C161.76 144.19 161.064 144.012 160.302 143.753Z" fill="#2F2E41"/>
<path d="M145.582 135.974C145.938 137.119 146.624 138.134 147.554 138.89C148.484 139.647 149.616 140.113 150.81 140.229C152.003 140.345 153.204 140.107 154.263 139.543C155.321 138.98 156.19 138.117 156.76 137.062C152.078 130.942 156.093 127.097 163.699 124.188C164.272 123.125 164.516 121.915 164.399 120.713C164.283 119.511 163.811 118.371 163.044 117.438C160.948 117.17 158.818 117.373 156.81 118.034C154.803 118.695 152.968 119.796 151.441 121.257L151.437 121.261L146.034 131.282C145.649 131.994 145.411 132.777 145.333 133.583C145.255 134.388 145.34 135.202 145.582 135.974Z" fill="#2F2E41"/>
<path d="M156.278 131.463C156.994 131.463 157.574 130.469 157.574 129.243C157.574 128.017 156.994 127.022 156.278 127.022C155.563 127.022 154.983 128.017 154.983 129.243C154.983 130.469 155.563 131.463 156.278 131.463Z" fill="#FFB8B8"/>
<path d="M160.139 125.62L171.265 130.66L173.304 126.16C172.953 124.516 172.217 122.977 171.157 121.671L163.5 118.204L160.139 125.62Z" fill="#2F2E41"/>
<path d="M186.882 224.919C189.612 224.919 191.826 222.706 191.826 219.976C191.826 217.246 189.612 215.032 186.882 215.032C184.151 215.032 181.938 217.246 181.938 219.976C181.938 222.706 184.151 224.919 186.882 224.919Z" fill="#623CEA"/>
<path d="M28.1591 254.305C29.9435 254.305 31.3901 252.859 31.3901 251.074C31.3901 249.29 29.9435 247.844 28.1591 247.844C26.3746 247.844 24.928 249.29 24.928 251.074C24.928 252.859 26.3746 254.305 28.1591 254.305Z" fill="#FF6584"/>
<path d="M44.4833 267.912H43.4945V304.695H44.4833V267.912Z" fill="#3F3D56"/>
<path d="M43.989 273.114C46.8623 273.114 49.1915 270.785 49.1915 267.912C49.1915 265.039 46.8623 262.71 43.989 262.71C41.1158 262.71 38.7866 265.039 38.7866 267.912C38.7866 270.785 41.1158 273.114 43.989 273.114Z" fill="#3F3D56"/>
<path d="M43.989 290.582C43.989 290.582 43.2458 274.6 28.0101 276.457L43.989 290.582Z" fill="#3F3D56"/>
</svg>
